<svg width="181" height="42" viewBox="0 0 181 42" fill="none" xmlns="http://www.w3.org/2000/svg">
<path d="M49.1094 34V8.63477H54.418V29.623H65.5098V34H49.1094ZM70.8887 12.7305C69.3418 12.7305 68.1465 11.5176 68.1465 10.0586C68.1465 8.59961 69.3418 7.38672 70.8887 7.38672C72.4355 7.38672 73.6309 8.59961 73.6309 10.0586C73.6309 11.5176 72.4355 12.7305 70.8887 12.7305ZM68.3223 34V15.1562H73.4551V34H68.3223ZM78.2715 34V19.0234H75.7051V15.1562H78.2715V13.6445C78.2715 9.95312 80.0293 8.24805 84.4766 8.24805C85.4258 8.24805 86.4629 8.33594 87.0605 8.45898V11.8516C86.709 11.7812 86.2168 11.7637 85.7422 11.7637C84.0371 11.7637 83.2812 12.4844 83.2812 13.8379V15.1562H87.0254V19.0234H83.4043V34H78.2715ZM96.9746 34.3867C91.209 34.3867 87.7109 30.6426 87.7109 24.6133V24.5957C87.7109 18.6016 91.2441 14.7695 96.7637 14.7695C102.283 14.7695 105.746 18.5137 105.746 24.209V25.791H92.7734C92.8262 28.7969 94.4609 30.5547 97.0801 30.5547C99.1895 30.5547 100.473 29.3945 100.842 28.3398L100.877 28.2344H105.588L105.535 28.4277C104.955 31.2051 102.354 34.3867 96.9746 34.3867ZM96.8516 18.6016C94.7422 18.6016 93.1602 20.0078 92.8262 22.5566H100.824C100.508 19.9551 98.9785 18.6016 96.8516 18.6016ZM109.068 34V8.63477H113.006V30.6074H124.818V34H109.068ZM129.793 12.6602C128.562 12.6602 127.578 11.6758 127.578 10.4805C127.578 9.26758 128.562 8.2832 129.793 8.2832C131.041 8.2832 132.008 9.26758 132.008 10.4805C132.008 11.6758 131.041 12.6602 129.793 12.6602ZM127.895 34V15.5078H131.691V34H127.895ZM135.611 34V15.5078H139.408V18.3027H139.496C140.463 16.4219 142.361 15.1562 145.156 15.1562C149.217 15.1562 151.555 17.7754 151.555 22.0293V34H147.74V22.75C147.74 19.9727 146.439 18.4082 143.803 18.4082C141.131 18.4082 139.408 20.3418 139.408 23.2246V34H135.611ZM163.121 34.3691C157.689 34.3691 154.402 30.6602 154.402 24.8242V24.8066C154.402 19.0234 157.742 15.1562 162.928 15.1562C168.113 15.1562 171.295 18.8828 171.295 24.4375V25.7207H158.199C158.27 29.2188 160.186 31.2578 163.209 31.2578C165.459 31.2578 166.953 30.0977 167.428 28.709L167.48 28.5684H171.084L171.049 28.7617C170.451 31.6973 167.604 34.3691 163.121 34.3691ZM162.945 18.2676C160.484 18.2676 158.586 19.9375 158.252 23.0312H167.533C167.217 19.832 165.424 18.2676 162.945 18.2676Z" fill="white"/>
<path d="M7.84615 10.0095H0V31.0961C0 34.4961 2.94231 35.782 4.41346 35.9999H26.1538V28.1538H7.84615V10.0095Z" fill="white"/>
<path d="M18.3077 2H7.84619V10.0096H15.8558V20.6346H26.1539V28.1538H34V17.2019C34 14.0635 30.9488 12.8429 29.4231 12.625H23.5385V6.90385C23.5385 3.37308 20.0513 2.16346 18.3077 2Z" fill="white"/>
</svg>
